<svg width="102" height="26" viewBox="0 0 102 26" fill="none" xmlns="http://www.w3.org/2000/svg">
<path d="M15.0566 12.2213C15.0676 11.3744 15.2931 10.544 15.7124 9.80741C16.1316 9.0708 16.7309 8.45191 17.4545 8.00832C16.9948 7.35369 16.3884 6.81496 15.6835 6.43491C14.9785 6.05486 14.1944 5.84397 13.3934 5.81898C11.6847 5.64013 10.0282 6.83855 9.15752 6.83855C8.26997 6.83855 6.92938 5.83673 5.48579 5.86635C4.55203 5.89644 3.64201 6.16721 2.8444 6.65228C2.04679 7.13735 1.38878 7.82019 0.934486 8.63425C-1.0334 12.0318 0.434464 17.0251 2.31954 19.7714C3.26268 21.1162 4.36494 22.6184 5.80723 22.5651C7.2186 22.5067 7.74572 21.6677 9.44936 21.6677C11.1372 21.6677 11.6317 22.5651 13.1033 22.5312C14.6177 22.5067 15.5719 21.1805 16.482 19.8229C17.1596 18.8647 17.6811 17.8057 18.027 16.685C17.1471 16.3139 16.3963 15.6928 15.8681 14.899C15.3399 14.1052 15.0576 13.174 15.0566 12.2213Z" fill="white"/>
<path d="M12.2878 4.0145C13.1136 3.026 13.5204 1.75544 13.4219 0.472656C12.1603 0.604788 10.995 1.20604 10.1581 2.15662C9.7489 2.621 9.4355 3.16125 9.23582 3.74649C9.03613 4.33172 8.95408 4.95046 8.99433 5.56734C9.62534 5.57382 10.2496 5.43743 10.8201 5.16846C11.3906 4.89948 11.8924 4.50492 12.2878 4.0145Z" fill="white"/>
<path d="M32.8919 19.1594H28.0756L26.9189 22.5651H24.8789L29.4409 9.96484H31.5604L36.1223 22.5651H34.0475L32.8919 19.1594ZM28.5744 17.5878H32.3921L30.5101 12.0606H30.4574L28.5744 17.5878Z" fill="white"/>
<path d="M45.9786 17.9807C45.9786 20.8354 44.4463 22.6696 42.134 22.6696C41.5483 22.7001 40.9658 22.5656 40.4532 22.2813C39.9405 21.9971 39.5185 21.5746 39.2355 21.0623H39.1917V25.6125H37.3008V13.3869H39.1312V14.9148H39.1659C39.462 14.405 39.8911 13.9847 40.4076 13.6987C40.9242 13.4128 41.5088 13.2718 42.0993 13.2908C44.4373 13.2908 45.9786 15.1338 45.9786 17.9807ZM44.0349 17.9807C44.0349 16.1208 43.0711 14.898 41.6004 14.898C40.1556 14.898 39.1838 16.1465 39.1838 17.9807C39.1838 19.8317 40.1556 21.0713 41.6004 21.0713C43.0711 21.0713 44.0349 19.8574 44.0349 17.9807Z" fill="white"/>
<path d="M56.1153 17.9807C56.1153 20.8354 54.583 22.6696 52.2708 22.6696C51.685 22.7001 51.1025 22.5656 50.5899 22.2813C50.0772 21.9971 49.6553 21.5746 49.3722 21.0623H49.3285V25.6125H47.4375V13.3869H49.2678V14.9148H49.3026C49.5987 14.405 50.0278 13.9847 50.5443 13.6987C51.0608 13.4128 51.6455 13.2718 52.236 13.2908C54.5741 13.2908 56.1153 15.1338 56.1153 17.9807ZM54.1717 17.9807C54.1717 16.1208 53.2078 14.898 51.7372 14.898C50.2924 14.898 49.3205 16.1465 49.3205 17.9807C49.3205 19.8316 50.2924 21.0712 51.7372 21.0712C53.2078 21.0712 54.1717 19.8574 54.1717 17.9807H54.1717Z" fill="white"/>
<path d="M62.8166 19.0535C62.9567 20.303 64.1739 21.1234 65.8373 21.1234C67.4312 21.1234 68.5779 20.303 68.5779 19.1763C68.5779 18.1983 67.8863 17.6127 66.2487 17.2114L64.6112 16.818C62.2909 16.2591 61.2138 15.1771 61.2138 13.4212C61.2138 11.2472 63.1137 9.75391 65.8115 9.75391C68.4815 9.75391 70.3119 11.2472 70.3735 13.4212H68.4646C68.3503 12.1638 67.308 11.4047 65.7847 11.4047C64.2614 11.4047 63.219 12.1727 63.219 13.2904C63.219 14.1812 63.8848 14.7054 65.5134 15.1067L66.9055 15.4476C69.498 16.0589 70.5752 17.0974 70.5752 18.9405C70.5752 21.2978 68.6921 22.7742 65.6972 22.7742C62.895 22.7742 61.0031 21.3325 60.8809 19.0534L62.8166 19.0535Z" fill="white"/>
<path d="M74.6652 11.2148V13.3889H76.417V14.8821H74.6652V19.9466C74.6652 20.7334 75.0159 21.1 75.786 21.1C75.994 21.0964 76.2016 21.0818 76.4081 21.0564V22.5407C76.0618 22.6052 75.7099 22.6344 75.3577 22.6279C73.4926 22.6279 72.7652 21.9293 72.7652 20.1477V14.8821H71.4258V13.3889H72.7652V11.2148H74.6652Z" fill="white"/>
<path d="M77.4258 17.9802C77.4258 15.0897 79.1329 13.2734 81.795 13.2734C84.466 13.2734 86.1652 15.0897 86.1652 17.9802C86.1652 20.8786 84.4749 22.6869 81.795 22.6869C79.116 22.6869 77.4258 20.8785 77.4258 17.9802ZM84.2384 17.9802C84.2384 15.9974 83.3272 14.8272 81.795 14.8272C80.2627 14.8272 79.3525 16.0063 79.3525 17.9802C79.3525 19.9709 80.2627 21.1322 81.795 21.1322C83.3272 21.1322 84.2384 19.9709 84.2384 17.9802H84.2384Z" fill="white"/>
<path d="M87.7246 13.3868H89.5281V14.9504H89.5719C89.6939 14.4621 89.9808 14.0305 90.3843 13.7282C90.7879 13.426 91.2835 13.2715 91.7878 13.2907C92.0057 13.2899 92.223 13.3135 92.4357 13.361V15.1248C92.1606 15.041 91.8736 15.0025 91.586 15.0109C91.3113 14.9997 91.0375 15.048 90.7832 15.1524C90.529 15.2568 90.3005 15.4149 90.1133 15.6157C89.9261 15.8164 89.7847 16.0553 89.6987 16.3157C89.6128 16.5761 89.5845 16.852 89.6156 17.1244V22.5734H87.7246L87.7246 13.3868Z" fill="white"/>
<path d="M101.154 19.8748C100.899 21.5424 99.2708 22.6869 97.1871 22.6869C94.5072 22.6869 92.8438 20.8964 92.8438 18.0238C92.8438 15.1423 94.5161 13.2734 97.1076 13.2734C99.6564 13.2734 101.259 15.0194 101.259 17.8048V18.4509H94.7526V18.5648C94.7226 18.9029 94.765 19.2435 94.8771 19.564C94.9892 19.8844 95.1684 20.1775 95.4028 20.4236C95.6372 20.6697 95.9214 20.8632 96.2366 20.9914C96.5518 21.1196 96.8907 21.1794 97.2308 21.1669C97.6777 21.2086 98.1261 21.1054 98.5094 20.8726C98.8927 20.6398 99.1905 20.2898 99.3583 19.8748L101.154 19.8748ZM94.7615 17.133H99.3672C99.3842 16.829 99.338 16.5248 99.2315 16.2394C99.125 15.9541 98.9604 15.6938 98.7483 15.4749C98.5361 15.2559 98.2808 15.0831 97.9985 14.9672C97.7162 14.8513 97.4129 14.7949 97.1076 14.8014C96.7997 14.7996 96.4944 14.8586 96.2095 14.975C95.9245 15.0914 95.6655 15.263 95.4474 15.4797C95.2293 15.6965 95.0564 15.9542 94.9387 16.238C94.8209 16.5217 94.7607 16.8259 94.7615 17.133V17.133Z" fill="white"/>
<path d="M26.1562 6.53869V0.484375H28.5967C29.7374 0.484375 30.4231 1.06305 30.4231 1.9945C30.4233 2.30047 30.3175 2.59714 30.1236 2.83424C29.9297 3.07135 29.6595 3.23431 29.3589 3.29554V3.36688C29.7319 3.38448 30.0833 3.54634 30.3386 3.81812C30.5939 4.0899 30.7329 4.45019 30.7261 4.82251C30.7261 5.88821 29.9481 6.53874 28.6514 6.53874L26.1562 6.53869ZM27.0992 3.04777H28.2181C29.0518 3.04777 29.4851 2.74158 29.4851 2.16687C29.4851 1.6085 29.0767 1.2815 28.3781 1.2815H27.0992V3.04777ZM28.4626 5.74152C29.3122 5.74152 29.7623 5.39718 29.7623 4.75558C29.7623 4.1219 29.2952 3.79045 28.4079 3.79045H27.0992V5.74152H28.4626Z" fill="white"/>
<path d="M31.6953 5.24788C31.6953 4.42544 32.3094 3.9513 33.3995 3.88392L34.6406 3.81257V3.4182C34.6406 2.93563 34.3206 2.66314 33.7025 2.66314C33.1978 2.66314 32.848 2.84794 32.7476 3.17097H31.8722C31.9646 2.38618 32.7049 1.88281 33.7443 1.88281C34.893 1.88281 35.5408 2.45306 35.5408 3.4182V6.54001H34.6704V5.89792H34.5988C34.4536 6.12824 34.2497 6.316 34.0079 6.44204C33.7661 6.56807 33.4951 6.62786 33.2226 6.61529C33.0303 6.63524 32.8358 6.61478 32.6519 6.55522C32.468 6.49566 32.2986 6.39832 32.1547 6.26949C32.0108 6.14066 31.8956 5.98319 31.8165 5.80723C31.7373 5.63127 31.6961 5.44072 31.6953 5.24788ZM34.6406 4.85747V4.47548L33.5217 4.54682C32.8907 4.58893 32.6045 4.80297 32.6045 5.20576C32.6045 5.61698 32.9622 5.85628 33.4542 5.85628C33.5983 5.87083 33.7439 5.85632 33.8823 5.81361C34.0206 5.7709 34.149 5.70087 34.2597 5.60768C34.3704 5.51449 34.4612 5.40005 34.5266 5.27117C34.592 5.14229 34.6308 5.00159 34.6406 4.85747Z" fill="white"/>
<path d="M36.8389 0.618892C36.832 0.502103 36.8603 0.385916 36.9203 0.285382C36.9803 0.184847 37.0692 0.104597 37.1755 0.0550268C37.2818 0.00545618 37.4005 -0.0111518 37.5164 0.00735549C37.6322 0.0258628 37.7398 0.0786322 37.8253 0.158828C37.9107 0.239023 37.97 0.34295 37.9955 0.457147C38.021 0.571343 38.0115 0.690549 37.9683 0.799321C37.9251 0.908092 37.8502 1.00142 37.7531 1.06721C37.6561 1.13301 37.5415 1.16824 37.4242 1.16834C37.3492 1.17215 37.2742 1.1608 37.2038 1.13498C37.1333 1.10915 37.0688 1.06938 37.0141 1.01806C36.9594 0.966734 36.9157 0.904915 36.8856 0.836318C36.8555 0.767722 36.8396 0.693765 36.8389 0.618892ZM36.9731 1.96997H37.8743V6.53898H36.973L36.9731 1.96997Z" fill="white"/>
<path d="M40.9701 4.91815L39.9685 6.53776H38.9758L40.4951 4.26366L38.9629 1.96875H40.0192L41.0039 3.57994H41.0754L42.0512 1.96875H43.0568L41.5465 4.22601L43.0738 6.53776H42.0353L41.0377 4.91815H40.9701Z" fill="white"/>
<path d="M43.8652 5.24788C43.8652 4.42544 44.4793 3.9513 45.5694 3.88392L46.8105 3.81257V3.4182C46.8105 2.93563 46.4905 2.66314 45.8725 2.66314C45.3677 2.66314 45.0179 2.84794 44.9175 3.17097H44.0421C44.1345 2.38618 44.8748 1.88281 45.9142 1.88281C47.0629 1.88281 47.7107 2.45306 47.7107 3.4182V6.54001H46.8403V5.89792H46.7687C46.6235 6.12824 46.4196 6.316 46.1778 6.44204C45.936 6.56807 45.665 6.62786 45.3925 6.61529C45.2002 6.63524 45.0058 6.61478 44.8218 6.55522C44.6379 6.49566 44.4685 6.39832 44.3246 6.26949C44.1807 6.14066 44.0655 5.98319 43.9864 5.80723C43.9073 5.63127 43.866 5.44072 43.8652 5.24788ZM46.8105 4.85747V4.47548L45.6916 4.54682C45.0606 4.58893 44.7744 4.80297 44.7744 5.20576C44.7744 5.61698 45.1322 5.85628 45.6241 5.85628C45.7682 5.87083 45.9138 5.85632 46.0522 5.81361C46.1906 5.7709 46.3189 5.70087 46.4296 5.60768C46.5403 5.51449 46.6311 5.40005 46.6965 5.27117C46.7619 5.14229 46.8007 5.00159 46.8105 4.85747Z" fill="white"/>
<path d="M49.1328 1.97314H50.0033V2.6737H50.0708C50.1683 2.43051 50.3405 2.22437 50.5628 2.08488C50.7851 1.94539 51.0459 1.87973 51.308 1.89733C51.4434 1.89552 51.5786 1.90814 51.7114 1.93499V2.82486C51.5455 2.7895 51.3763 2.77124 51.2066 2.77036C51.0575 2.757 50.9072 2.77491 50.7654 2.82292C50.6236 2.87094 50.4935 2.948 50.3833 3.04916C50.2732 3.15031 50.1855 3.27333 50.1258 3.4103C50.0662 3.54727 50.036 3.69517 50.0371 3.84448V6.54219H49.1328L49.1328 1.97314Z" fill="white"/>
<path d="M55.1992 1.9716H56.0702V2.69743H56.1378C56.2524 2.43674 56.4458 2.2182 56.6909 2.07229C56.9359 1.92637 57.2206 1.86034 57.5051 1.8834C57.728 1.86669 57.9519 1.90021 58.1601 1.98148C58.3683 2.06275 58.5554 2.18969 58.7077 2.3529C58.86 2.5161 58.9736 2.71139 59.0399 2.92429C59.1063 3.13719 59.1237 3.36224 59.091 3.58278V6.54056H58.1868V3.80922C58.1868 3.07497 57.8668 2.70982 57.198 2.70982C57.0467 2.70279 56.8956 2.72848 56.7551 2.78513C56.6146 2.84178 56.4881 2.92805 56.3842 3.03802C56.2803 3.148 56.2014 3.27908 56.1531 3.42228C56.1047 3.56548 56.088 3.71742 56.104 3.86767V6.54061H55.1993L55.1992 1.9716Z" fill="white"/>
<path d="M60.2246 5.24788C60.2246 4.42544 60.8387 3.9513 61.9288 3.88392L63.1699 3.81257V3.4182C63.1699 2.93563 62.8499 2.66314 62.2318 2.66314C61.7271 2.66314 61.3773 2.84794 61.2769 3.17097H60.4015C60.4939 2.38618 61.2342 1.88281 62.2736 1.88281C63.4223 1.88281 64.0701 2.45306 64.0701 3.4182V6.54001H63.1997V5.89792H63.1281C62.9829 6.12824 62.779 6.316 62.5372 6.44204C62.2954 6.56807 62.0244 6.62786 61.7519 6.61529C61.5595 6.63524 61.3651 6.61478 61.1812 6.55522C60.9973 6.49566 60.8279 6.39832 60.684 6.26949C60.5401 6.14066 60.4249 5.98319 60.3458 5.80723C60.2666 5.63127 60.2254 5.44072 60.2246 5.24788ZM63.1699 4.85747V4.47548L62.051 4.54682C61.42 4.58893 61.1338 4.80297 61.1338 5.20576C61.1338 5.61698 61.4915 5.85628 61.9835 5.85628C62.1276 5.87083 62.2732 5.85632 62.4116 5.81362C62.5499 5.77091 62.6783 5.70088 62.789 5.60769C62.8997 5.5145 62.9904 5.40006 63.0559 5.27117C63.1213 5.14229 63.1601 5.0016 63.1699 4.85747H63.1699Z" fill="white"/>
</svg>
