<svg width="102" height="26" viewBox="0 0 102 26" fill="none" xmlns="http://www.w3.org/2000/svg">
<g clip-path="url(#clip0)">
<path d="M28.6582 6.68086V1.40625H30.2406C31.0318 1.40625 31.7351 1.66998 32.1746 2.10953C32.7021 2.63699 32.8779 3.25236 32.8779 4.04356C32.8779 4.83475 32.6142 5.45012 32.1746 5.97758C31.6472 6.50504 31.0318 6.68086 30.2406 6.68086H28.6582ZM29.3615 6.06549H30.3285C30.9439 6.06549 31.3834 5.88967 31.7351 5.53803C32.0867 5.18639 32.2625 4.65893 32.2625 4.04356C32.2625 3.42818 32.0867 2.90072 31.7351 2.54908C31.3834 2.19744 30.856 2.02162 30.3285 2.02162H29.3615V6.06549Z" fill="white" stroke="white" stroke-width="0.2" stroke-miterlimit="10"/>
<path d="M33.9336 6.68086V1.40625H34.6369V6.68086H33.9336Z" fill="white" stroke="white" stroke-width="0.2" stroke-miterlimit="10"/>
<path d="M37.2739 6.85668C36.9222 6.85668 36.4827 6.76877 36.131 6.50504C35.7794 6.24131 35.5156 5.88967 35.4277 5.45012L36.0431 5.18639C36.131 5.45012 36.3068 5.71385 36.4827 5.88967C36.7464 6.06549 37.0101 6.1534 37.2739 6.1534C37.5376 6.1534 37.8013 6.1534 38.065 5.97758C38.2409 5.80176 38.4167 5.62594 38.4167 5.36221C38.4167 5.09848 38.3288 4.83475 38.065 4.65893C37.8892 4.48311 37.5376 4.30729 37.098 4.21938C36.6585 4.04355 36.3068 3.86773 36.0431 3.69191C35.7794 3.42818 35.6915 3.16445 35.6915 2.81281C35.6915 2.46117 35.8673 2.10953 36.131 1.8458C36.3947 1.58207 36.8343 1.40625 37.2739 1.40625C37.7134 1.40625 38.065 1.49416 38.3288 1.75789C38.5925 2.02162 38.7683 2.19744 38.8562 2.46117L38.2409 2.63699C38.153 2.46117 38.065 2.28535 37.8892 2.19744C37.7134 2.02162 37.4497 2.02162 37.1859 2.02162C36.9222 2.02162 36.7464 2.10953 36.4827 2.19744C36.3068 2.37326 36.2189 2.54908 36.2189 2.7249C36.2189 2.90072 36.3068 3.07654 36.4827 3.25236C36.6585 3.42818 36.9222 3.51609 37.2739 3.604C37.5376 3.69191 37.7134 3.77982 37.8892 3.86773C38.065 3.95564 38.2409 4.04355 38.4167 4.21938C38.5925 4.30729 38.7683 4.48311 38.8562 4.74684C38.9442 4.92266 39.0321 5.18639 39.0321 5.45012C39.0321 5.71385 38.9442 5.97758 38.8562 6.1534C38.7683 6.32922 38.5925 6.50504 38.4167 6.59295C38.2409 6.68086 38.065 6.76877 37.8892 6.85668C37.7134 6.94459 37.4497 6.85668 37.2739 6.85668Z" fill="white" stroke="white" stroke-width="0.2" stroke-miterlimit="10"/>
<path d="M40.7013 6.68086H39.998V1.40625H41.7562C42.1958 1.40625 42.5474 1.58207 42.8991 1.8458C43.2507 2.10953 43.4265 2.54908 43.4265 2.98863C43.4265 3.42818 43.2507 3.77982 42.8991 4.13147C42.5474 4.3952 42.1958 4.57102 41.7562 4.57102H40.6134V6.68086H40.7013ZM40.7013 3.95565H41.8442C42.1079 3.95565 42.3716 3.86773 42.5474 3.69191C42.7233 3.51609 42.8112 3.25236 42.8112 3.07654C42.8112 2.90072 42.7233 2.63699 42.5474 2.46117C42.3716 2.28535 42.1079 2.19744 41.8442 2.19744H40.7013V3.95565Z" fill="white" stroke="white" stroke-width="0.2" stroke-miterlimit="10"/>
<path d="M48.6143 6.06551C48.0869 6.59297 47.4715 6.8567 46.6803 6.8567C45.8891 6.8567 45.2737 6.59297 44.7463 6.06551C44.2188 5.53805 43.9551 4.83477 43.9551 4.04357C43.9551 3.25238 44.2188 2.63701 44.7463 2.10955C45.2737 1.58209 45.8891 1.31836 46.6803 1.31836C47.4715 1.31836 48.0869 1.58209 48.6143 2.10955C49.1418 2.63701 49.4055 3.25238 49.4055 4.04357C49.4055 4.83477 49.1418 5.53805 48.6143 6.06551ZM45.2737 5.62596C45.6254 5.9776 46.1528 6.24133 46.6803 6.24133C47.2078 6.24133 47.7352 6.06551 48.0869 5.62596C48.4385 5.27432 48.7022 4.74686 48.7022 4.13148C48.7022 3.51611 48.5264 2.98865 48.0869 2.63701C47.7352 2.28537 47.2078 2.02164 46.6803 2.02164C46.1528 2.02164 45.6254 2.19746 45.2737 2.63701C44.9221 2.98865 44.6584 3.51611 44.6584 4.13148C44.6584 4.74686 44.8342 5.18641 45.2737 5.62596Z" fill="white" stroke="white" stroke-width="0.2" stroke-miterlimit="10"/>
<path d="M50.3711 6.68086V1.40625H51.1623L53.7117 5.53803V4.48311V1.40625H54.415V6.68086H53.7117L50.9865 2.37326V3.42818V6.68086H50.3711Z" fill="white" stroke="white" stroke-width="0.2" stroke-miterlimit="10"/>
<path d="M55.6465 6.68115V1.40654H56.3498V6.68115H55.6465ZM56.2619 1.0549H55.6465L55.9981 0.0878906H56.7014L56.2619 1.0549Z" fill="white" stroke="white" stroke-width="0.2" stroke-miterlimit="10"/>
<path d="M58.811 6.68086L56.9648 1.40625H57.756L59.1626 5.71385L60.6571 1.40625H61.4483L59.5142 6.68086H58.811Z" fill="white" stroke="white" stroke-width="0.2" stroke-miterlimit="10"/>
<path d="M65.3171 2.10953H62.9435V3.77982H65.0534V4.3952H62.8556V6.06549H65.2292V6.68086H62.1523V1.40625H65.2292V2.10953H65.3171Z" fill="white" stroke="white" stroke-width="0.2" stroke-miterlimit="10"/>
<path d="M66.3711 6.68086V1.40625H67.0744V6.06549H69.3601V6.68086H66.3711Z" fill="white" stroke="white" stroke-width="0.2" stroke-miterlimit="10"/>
<path d="M71.9102 6.68086V1.40625H72.7013L75.2508 5.53803V4.48311V1.40625H75.954V6.68086H75.2508L72.5255 2.37326V3.42818V6.68086H71.9102Z" fill="white" stroke="white" stroke-width="0.2" stroke-miterlimit="10"/>
<path d="M81.4913 6.06549C80.9638 6.59295 80.3484 6.85668 79.5572 6.85668C78.766 6.85668 78.1507 6.59295 77.6232 6.06549C77.0958 5.53803 76.832 4.92266 76.832 4.13146C76.832 3.34027 77.0958 2.7249 77.6232 2.19744C78.1507 1.66998 78.766 1.40625 79.5572 1.40625C80.3484 1.40625 80.9638 1.66998 81.4913 2.19744C82.0187 2.7249 82.2824 3.34027 82.2824 4.13146C82.2824 4.83475 82.0187 5.53803 81.4913 6.06549ZM78.1507 5.62594C78.5023 5.97758 79.0298 6.24131 79.5572 6.24131C80.0847 6.24131 80.6122 6.06549 80.9638 5.62594C81.3154 5.2743 81.5792 4.74684 81.5792 4.13146C81.5792 3.51609 81.4033 2.98863 80.9638 2.63699C80.6122 2.28535 80.0847 2.02162 79.5572 2.02162C79.0298 2.02162 78.5023 2.19744 78.1507 2.63699C77.799 2.98863 77.5353 3.51609 77.5353 4.13146C77.5353 4.74684 77.799 5.18639 78.1507 5.62594Z" fill="white" stroke="white" stroke-width="0.2" stroke-miterlimit="10"/>
<path d="M51.1635 14.5927C49.0536 14.5927 47.3834 16.1751 47.3834 18.3729C47.3834 20.4827 49.0536 22.153 51.1635 22.153C53.2733 22.153 54.9436 20.5706 54.9436 18.3729C54.8557 16.1751 53.1854 14.5927 51.1635 14.5927ZM51.1635 20.5706C50.0207 20.5706 49.0536 19.6036 49.0536 18.2849C49.0536 16.9663 50.0207 15.9993 51.1635 15.9993C52.3063 15.9993 53.2733 16.8784 53.2733 18.2849C53.2733 19.6915 52.3063 20.5706 51.1635 20.5706ZM42.8999 14.5927C40.7901 14.5927 39.1198 16.1751 39.1198 18.3729C39.1198 20.4827 40.7901 22.153 42.8999 22.153C45.0098 22.153 46.6801 20.5706 46.6801 18.3729C46.6801 16.1751 45.0098 14.5927 42.8999 14.5927ZM42.8999 20.5706C41.7571 20.5706 40.7901 19.6036 40.7901 18.2849C40.7901 16.9663 41.7571 15.9993 42.8999 15.9993C44.0428 15.9993 45.0098 16.8784 45.0098 18.2849C45.0977 19.6915 44.0428 20.5706 42.8999 20.5706ZM33.2298 15.7355V17.3179H37.0099C36.922 18.197 36.5704 18.9003 36.1308 19.3399C35.6034 19.8673 34.7243 20.4827 33.2298 20.4827C30.8562 20.4827 29.098 18.6366 29.098 16.263C29.098 13.8894 30.9441 12.0433 33.2298 12.0433C34.4605 12.0433 35.4276 12.5708 36.1308 13.1862L37.2737 12.0433C36.3067 11.1642 35.0759 10.4609 33.3177 10.4609C30.153 10.4609 27.4277 13.0982 27.4277 16.263C27.4277 19.4278 30.153 22.0651 33.3177 22.0651C35.0759 22.0651 36.3067 21.5376 37.3616 20.3948C38.4165 19.3399 38.7681 17.8454 38.7681 16.7026C38.7681 16.3509 38.7682 15.9993 38.6802 15.7355H33.2298ZM73.0531 16.9663C72.7015 16.0872 71.8224 14.5927 69.8884 14.5927C67.9543 14.5927 66.372 16.0872 66.372 18.3729C66.372 20.4827 67.9543 22.153 70.0642 22.153C71.7345 22.153 72.7894 21.0981 73.141 20.4827L71.9103 19.6036C71.4707 20.219 70.9433 20.6585 70.0642 20.6585C69.1851 20.6585 68.6576 20.3069 68.2181 19.5157L73.229 17.4058L73.0531 16.9663ZM67.9543 18.197C67.9543 16.7905 69.0972 15.9993 69.8884 15.9993C70.5037 15.9993 71.1191 16.3509 71.2949 16.7905L67.9543 18.197ZM63.9105 21.8013H65.5808V10.8126H63.9105V21.8013ZM61.1852 15.3839C60.7457 14.9444 60.0424 14.5048 59.1633 14.5048C57.3172 14.5048 55.559 16.1751 55.559 18.2849C55.559 20.3948 57.2293 21.9772 59.1633 21.9772C60.0424 21.9772 60.7457 21.5376 61.0973 21.0981H61.1852V21.6255C61.1852 23.0321 60.3941 23.8233 59.1633 23.8233C58.1963 23.8233 57.493 23.12 57.3172 22.5046L55.9106 23.12C56.3502 24.087 57.4051 25.3178 59.2512 25.3178C61.1853 25.3178 62.7676 24.1749 62.7676 21.4497V14.7685H61.1852V15.3839ZM59.3391 20.5706C58.1963 20.5706 57.2293 19.6036 57.2293 18.2849C57.2293 16.9663 58.1963 15.9993 59.3391 15.9993C60.482 15.9993 61.3611 16.9663 61.3611 18.2849C61.2732 19.6036 60.3941 20.5706 59.3391 20.5706ZM80.7013 10.8126H76.7454V21.8013H78.4156V17.6696H80.7013C82.5474 17.6696 84.3056 16.3509 84.3056 14.2411C84.3056 12.1312 82.5474 10.8126 80.7013 10.8126ZM80.7892 16.1751H78.4156V12.395H80.7892C82.02 12.395 82.7233 13.4499 82.7233 14.2411C82.7233 15.1202 82.02 16.1751 80.7892 16.1751ZM90.8989 14.5927C89.6682 14.5927 88.4374 15.1202 87.9979 16.263L89.4923 16.8784C89.844 16.263 90.3714 16.0872 90.9868 16.0872C91.8659 16.0872 92.6571 16.6146 92.745 17.4938V17.5817C92.4813 17.4058 91.778 17.1421 91.0747 17.1421C89.4923 17.1421 87.91 18.0212 87.91 19.6036C87.91 21.0981 89.2286 22.0651 90.6352 22.0651C91.778 22.0651 92.3055 21.5376 92.745 21.0102H92.8329V21.8893H94.4153V17.5817C94.2395 15.6476 92.8329 14.5927 90.8989 14.5927ZM90.7231 20.5706C90.1956 20.5706 89.4044 20.3069 89.4044 19.6036C89.4044 18.7245 90.3714 18.4608 91.1626 18.4608C91.8659 18.4608 92.2176 18.6366 92.6571 18.8124C92.5692 19.8673 91.6901 20.5706 90.7231 20.5706ZM100.042 14.7685L98.1954 19.5157H98.1075L96.1735 14.7685H94.4153L97.3163 21.4497L95.6461 25.1419H97.3163L101.8 14.7685H100.042ZM85.2727 21.8013H86.9429V10.8126H85.2727V21.8013Z" fill="white"/>
<path d="M0.439551 2.11133C0.17582 2.37506 0 2.81461 0 3.34207V22.7702C0 23.2977 0.17582 23.7372 0.439551 24.001L0.527461 24.0889L11.3404 13.188V13.1001V13.0122L0.439551 2.11133Z" fill="url(#paint0_linear)"/>
<path d="M15.0321 16.7907L11.3398 13.1864V13.0985V13.0106L14.9442 9.40625L15.0321 9.49416L19.3397 11.9556C20.5704 12.6589 20.5704 13.8018 19.3397 14.505L15.0321 16.7907Z" fill="url(#paint1_linear)"/>
<path d="M15.0325 16.7918L11.3403 13.0996L0.439453 24.0005C0.879004 24.44 1.49438 24.44 2.28557 24.0884L15.0325 16.7918Z" fill="url(#paint2_linear)"/>
<path d="M15.0325 9.3199L2.19766 2.02336C1.49438 1.58381 0.791094 1.67172 0.439453 2.11127L11.4282 13.1L15.0325 9.3199Z" fill="url(#paint3_linear)"/>
<path opacity="0.2" d="M15.0326 16.7031L2.19768 23.9118C1.4944 24.3513 0.879024 24.2634 0.439473 23.9118L0.351562 23.9997L0.439473 24.0876C0.879024 24.4392 1.4944 24.5271 2.19768 24.0876L15.0326 16.7031Z" fill="black"/>
<path opacity="0.12" d="M0.439551 23.9124C0.17582 23.6486 0 23.2091 0 22.6816V22.7696C0 23.297 0.17582 23.7366 0.439551 24.0003V23.9124Z" fill="black"/>
<path opacity="0.12" d="M19.3408 14.1546L14.9453 16.616L15.0332 16.7039L19.3408 14.2425C19.9562 13.8908 20.2199 13.4513 20.2199 13.0117C20.2199 13.4513 19.9562 13.8908 19.3408 14.1546Z" fill="black"/>
<path opacity="0.25" d="M2.19775 2.1985L19.3402 11.8686C19.8677 12.2203 20.2193 12.5719 20.2193 13.0115C20.2193 12.5719 19.9556 12.1323 19.3402 11.7807L2.19775 2.02268C0.967012 1.3194 0 1.93477 0 3.34133V3.42924C0 2.02268 0.967012 1.49522 2.19775 2.1985Z" fill="white"/>
</g>
<defs>
<linearGradient id="paint0_linear" x1="10.3972" y1="3.12458" x2="-4.3562" y2="17.878" gradientUnits="userSpaceOnUse">
<stop stop-color="#00A0FF"/>
<stop offset="0.00657445" stop-color="#00A1FF"/>
<stop offset="0.2601" stop-color="#00BEFF"/>
<stop offset="0.5122" stop-color="#00D2FF"/>
<stop offset="0.7604" stop-color="#00DFFF"/>
<stop offset="1" stop-color="#00E3FF"/>
</linearGradient>
<linearGradient id="paint1_linear" x1="20.9764" y1="13.0495" x2="-0.295156" y2="13.0495" gradientUnits="userSpaceOnUse">
<stop stop-color="#FFE000"/>
<stop offset="0.4087" stop-color="#FFBD00"/>
<stop offset="0.7754" stop-color="#FFA500"/>
<stop offset="1" stop-color="#FF9C00"/>
</linearGradient>
<linearGradient id="paint2_linear" x1="13.0584" y1="15.0679" x2="-6.94841" y2="35.0747" gradientUnits="userSpaceOnUse">
<stop stop-color="#FF3A44"/>
<stop offset="1" stop-color="#C31162"/>
</linearGradient>
<linearGradient id="paint3_linear" x1="-2.35196" y1="-4.37738" x2="6.582" y2="4.55658" gradientUnits="userSpaceOnUse">
<stop stop-color="#32A071"/>
<stop offset="0.0685" stop-color="#2DA771"/>
<stop offset="0.4762" stop-color="#15CF74"/>
<stop offset="0.8009" stop-color="#06E775"/>
<stop offset="1" stop-color="#00F076"/>
</linearGradient>
<clipPath id="clip0">
<rect width="101.8" height="25.406" fill="white"/>
</clipPath>
</defs>
</svg>
